<svg width="198" height="60" viewBox="0 0 198 60" fill="none" xmlns="http://www.w3.org/2000/svg">
<g clip-path="url(#clip0_1_21)">
<path d="M106.5 30H111.5L114 36H109L106.5 30Z" fill="white"/>
<path d="M7.2 30V13.5H0.959999V9H18.69V13.5H12.3V30H7.2Z" fill="#FF7900"/>
<path d="M22.2982 30V9H36.9382V13.35H27.2482V25.65H37.2382V30H22.2982ZM24.6982 21.39V17.25H35.5882V21.39H24.6982ZM40.5241 23.58V19.17H50.9041V23.58H40.5241ZM62.0414 30.3C60.6614 30.3 59.4114 30.14 58.2914 29.82C57.1914 29.48 56.2114 29 55.3514 28.38C54.4914 27.74 53.7214 26.99 53.0414 26.13L56.1314 22.62C57.1314 23.96 58.1314 24.86 59.1314 25.32C60.1514 25.78 61.2014 26.01 62.2814 26.01C62.8214 26.01 63.3114 25.94 63.7514 25.8C64.1914 25.66 64.5314 25.46 64.7714 25.2C65.0114 24.92 65.1314 24.58 65.1314 24.18C65.1314 23.88 65.0514 23.61 64.8914 23.37C64.7514 23.13 64.5514 22.92 64.2914 22.74C64.0314 22.56 63.7214 22.4 63.3614 22.26C63.0014 22.1 62.6214 21.97 62.2214 21.87C61.8214 21.75 61.4114 21.65 60.9914 21.57C59.8314 21.31 58.8214 20.99 57.9614 20.61C57.1014 20.23 56.3814 19.77 55.8014 19.23C55.2414 18.67 54.8214 18.04 54.5414 17.34C54.2614 16.62 54.1214 15.82 54.1214 14.94C54.1214 14 54.3314 13.14 54.7514 12.36C55.1914 11.56 55.7714 10.88 56.4914 10.32C57.2314 9.74 58.0814 9.3 59.0414 9C60.0014 8.68 61.0014 8.52 62.0414 8.52C63.4214 8.52 64.6014 8.67 65.5814 8.97C66.5814 9.25 67.4314 9.66 68.1314 10.2C68.8514 10.74 69.4614 11.39 69.9614 12.15L66.8114 15.18C66.3914 14.66 65.9314 14.23 65.4314 13.89C64.9514 13.55 64.4314 13.29 63.8714 13.11C63.3314 12.93 62.7714 12.84 62.1914 12.84C61.5914 12.84 61.0714 12.92 60.6314 13.08C60.2114 13.22 59.8814 13.43 59.6414 13.71C59.4014 13.97 59.2814 14.29 59.2814 14.67C59.2814 15.01 59.3814 15.3 59.5814 15.54C59.7814 15.78 60.0514 16 60.3914 16.2C60.7314 16.38 61.1214 16.54 61.5614 16.68C62.0014 16.8 62.4614 16.9 62.9414 16.98C64.0414 17.2 65.0314 17.49 65.9114 17.85C66.8114 18.21 67.5814 18.65 68.2214 19.17C68.8814 19.69 69.3814 20.31 69.7214 21.03C70.0814 21.73 70.2614 22.55 70.2614 23.49C70.2614 24.95 69.9014 26.19 69.1814 27.21C68.4814 28.21 67.5114 28.98 66.2714 29.52C65.0514 30.04 63.6414 30.3 62.0414 30.3ZM74.0951 30V9H88.7351V13.35H79.0451V25.65H89.0351V30H74.0951ZM76.4951 21.39V17.25H87.3851V21.39H76.4951ZM90.761 30L99.071 9H103.391L111.641 30H106.481L102.521 19.35C102.361 18.93 102.201 18.48 102.041 18C101.881 17.52 101.721 17.03 101.561 16.53C101.401 16.01 101.241 15.51 101.081 15.03C100.941 14.53 100.821 14.07 100.721 13.65L101.621 13.62C101.501 14.12 101.361 14.61 101.201 15.09C101.061 15.57 100.911 16.05 100.751 16.53C100.611 16.99 100.451 17.46 100.271 17.94C100.091 18.4 99.921 18.88 99.761 19.38L95.801 30H90.761ZM94.721 25.98L96.311 22.14H105.971L107.531 25.98H94.721Z" fill="white"/>
<path d="M102 9H103.5L110 26H108.5L102 9Z" fill="white"/>
</g>
<path d="M111.296 55V53.2H113.33V44.2H111.296V42.4H117.308V44.2H115.274V53.2H117.308V55H111.296ZM119.892 55V45.55H121.746V47.494L121.422 47.71C121.542 47.29 121.776 46.906 122.124 46.558C122.472 46.198 122.886 45.91 123.366 45.694C123.846 45.466 124.338 45.352 124.842 45.352C125.562 45.352 126.162 45.496 126.642 45.784C127.122 46.06 127.482 46.486 127.722 47.062C127.962 47.638 128.082 48.364 128.082 49.24V55H126.228V49.366C126.228 48.826 126.156 48.382 126.012 48.034C125.868 47.674 125.646 47.416 125.346 47.26C125.046 47.092 124.674 47.02 124.23 47.044C123.87 47.044 123.54 47.104 123.24 47.224C122.94 47.332 122.676 47.488 122.448 47.692C122.232 47.896 122.058 48.136 121.926 48.412C121.806 48.676 121.746 48.964 121.746 49.276V55H120.828C120.672 55 120.516 55 120.36 55C120.204 55 120.048 55 119.892 55ZM134.611 55.18C133.735 55.18 132.949 54.964 132.253 54.532C131.569 54.1 131.023 53.512 130.615 52.768C130.219 52.024 130.021 51.19 130.021 50.266C130.021 49.342 130.219 48.508 130.615 47.764C131.023 47.02 131.569 46.432 132.253 46C132.949 45.568 133.735 45.352 134.611 45.352C135.451 45.352 136.213 45.526 136.897 45.874C137.593 46.21 138.121 46.672 138.481 47.26L137.455 48.52C137.263 48.244 137.017 47.992 136.717 47.764C136.417 47.536 136.099 47.356 135.763 47.224C135.427 47.092 135.103 47.026 134.791 47.026C134.215 47.026 133.699 47.17 133.243 47.458C132.799 47.734 132.445 48.118 132.181 48.61C131.917 49.102 131.785 49.654 131.785 50.266C131.785 50.878 131.923 51.43 132.199 51.922C132.475 52.402 132.841 52.786 133.297 53.074C133.753 53.362 134.257 53.506 134.809 53.506C135.133 53.506 135.445 53.452 135.745 53.344C136.057 53.236 136.357 53.074 136.645 52.858C136.933 52.642 137.203 52.378 137.455 52.066L138.481 53.326C138.097 53.866 137.545 54.31 136.825 54.658C136.117 55.006 135.379 55.18 134.611 55.18ZM143.542 55.18C142.87 55.18 142.282 55.024 141.778 54.712C141.286 54.4 140.902 53.962 140.626 53.398C140.362 52.834 140.23 52.162 140.23 51.382V45.55H142.084V50.878C142.084 51.43 142.168 51.91 142.336 52.318C142.516 52.714 142.768 53.02 143.092 53.236C143.428 53.452 143.83 53.56 144.298 53.56C144.646 53.56 144.964 53.506 145.252 53.398C145.54 53.278 145.786 53.116 145.99 52.912C146.206 52.708 146.374 52.462 146.494 52.174C146.614 51.886 146.674 51.574 146.674 51.238V45.55H148.528V55H146.674V53.02L146.998 52.804C146.854 53.248 146.608 53.65 146.26 54.01C145.924 54.37 145.522 54.658 145.054 54.874C144.586 55.078 144.082 55.18 143.542 55.18ZM156.096 55.18C155.688 55.18 155.28 55.114 154.872 54.982C154.476 54.85 154.11 54.676 153.774 54.46C153.45 54.232 153.174 53.986 152.946 53.722C152.73 53.446 152.586 53.17 152.514 52.894L152.982 52.642V54.946H151.128V41.68H152.982V47.71L152.694 47.548C152.754 47.272 152.886 47.008 153.09 46.756C153.294 46.492 153.552 46.258 153.864 46.054C154.188 45.838 154.536 45.67 154.908 45.55C155.28 45.418 155.658 45.352 156.042 45.352C156.894 45.352 157.65 45.562 158.31 45.982C158.97 46.402 159.492 46.984 159.876 47.728C160.26 48.46 160.452 49.3 160.452 50.248C160.452 51.196 160.26 52.042 159.876 52.786C159.504 53.53 158.988 54.118 158.328 54.55C157.668 54.97 156.924 55.18 156.096 55.18ZM155.79 53.488C156.342 53.488 156.834 53.35 157.266 53.074C157.698 52.786 158.04 52.402 158.292 51.922C158.544 51.43 158.67 50.872 158.67 50.248C158.67 49.636 158.544 49.09 158.292 48.61C158.052 48.118 157.716 47.734 157.284 47.458C156.852 47.182 156.354 47.044 155.79 47.044C155.226 47.044 154.728 47.182 154.296 47.458C153.864 47.734 153.522 48.118 153.27 48.61C153.018 49.09 152.892 49.636 152.892 50.248C152.892 50.872 153.018 51.43 153.27 51.922C153.522 52.402 153.864 52.786 154.296 53.074C154.728 53.35 155.226 53.488 155.79 53.488ZM166.102 55.18C165.322 55.18 164.608 54.964 163.96 54.532C163.324 54.1 162.814 53.512 162.43 52.768C162.046 52.024 161.854 51.184 161.854 50.248C161.854 49.3 162.046 48.46 162.43 47.728C162.826 46.984 163.354 46.402 164.014 45.982C164.686 45.562 165.436 45.352 166.264 45.352C166.756 45.352 167.206 45.424 167.614 45.568C168.022 45.712 168.376 45.916 168.676 46.18C168.988 46.432 169.24 46.726 169.432 47.062C169.636 47.398 169.762 47.758 169.81 48.142L169.396 47.998V45.55H171.268V55H169.396V52.75L169.828 52.624C169.756 52.948 169.606 53.266 169.378 53.578C169.162 53.878 168.88 54.148 168.532 54.388C168.196 54.628 167.818 54.82 167.398 54.964C166.99 55.108 166.558 55.18 166.102 55.18ZM166.588 53.47C167.152 53.47 167.65 53.332 168.082 53.056C168.514 52.78 168.85 52.402 169.09 51.922C169.342 51.43 169.468 50.872 169.468 50.248C169.468 49.636 169.342 49.09 169.09 48.61C168.85 48.13 168.514 47.752 168.082 47.476C167.65 47.2 167.152 47.062 166.588 47.062C166.036 47.062 165.544 47.2 165.112 47.476C164.692 47.752 164.356 48.13 164.104 48.61C163.864 49.09 163.744 49.636 163.744 50.248C163.744 50.872 163.864 51.43 164.104 51.922C164.356 52.402 164.692 52.78 165.112 53.056C165.544 53.332 166.036 53.47 166.588 53.47ZM175.027 55V43.138H176.881V55H175.027ZM173.065 47.35V45.55H179.077V47.35H173.065ZM184.925 55.18C184.001 55.18 183.173 54.97 182.441 54.55C181.721 54.118 181.151 53.536 180.731 52.804C180.311 52.06 180.101 51.214 180.101 50.266C180.101 49.318 180.311 48.478 180.731 47.746C181.151 47.002 181.721 46.42 182.441 46C183.173 45.568 184.001 45.352 184.925 45.352C185.837 45.352 186.653 45.568 187.373 46C188.105 46.42 188.681 47.002 189.101 47.746C189.521 48.478 189.731 49.318 189.731 50.266C189.731 51.214 189.521 52.06 189.101 52.804C188.681 53.536 188.105 54.118 187.373 54.55C186.653 54.97 185.837 55.18 184.925 55.18ZM184.925 53.488C185.489 53.488 185.993 53.35 186.437 53.074C186.881 52.786 187.229 52.402 187.481 51.922C187.733 51.43 187.853 50.878 187.841 50.266C187.853 49.642 187.733 49.09 187.481 48.61C187.229 48.118 186.881 47.734 186.437 47.458C185.993 47.182 185.489 47.044 184.925 47.044C184.361 47.044 183.851 47.188 183.395 47.476C182.951 47.752 182.603 48.136 182.351 48.628C182.099 49.108 181.979 49.654 181.991 50.266C181.979 50.878 182.099 51.43 182.351 51.922C182.603 52.402 182.951 52.786 183.395 53.074C183.851 53.35 184.361 53.488 184.925 53.488ZM191.751 55V45.55H193.623V48.52L193.443 47.8C193.575 47.344 193.797 46.93 194.109 46.558C194.433 46.186 194.799 45.892 195.207 45.676C195.627 45.46 196.059 45.352 196.503 45.352C196.707 45.352 196.899 45.37 197.079 45.406C197.271 45.442 197.421 45.484 197.529 45.532L197.043 47.548C196.899 47.488 196.737 47.44 196.557 47.404C196.389 47.356 196.221 47.332 196.053 47.332C195.729 47.332 195.417 47.398 195.117 47.53C194.829 47.65 194.571 47.824 194.343 48.052C194.127 48.268 193.953 48.526 193.821 48.826C193.689 49.114 193.623 49.432 193.623 49.78V55H191.751Z" fill="white"/>
<defs>
<clipPath id="clip0_1_21">
<rect width="114" height="37" fill="white"/>
</clipPath>
</defs>
</svg>
